<svg width="86" height="96" viewBox="0 0 86 96" fill="none" xmlns="http://www.w3.org/2000/svg">
<g opacity="0.3">
<mask id="mask0_1_11" style="mask-type:alpha" maskUnits="userSpaceOnUse" x="0" y="18" width="8" height="8">
<path d="M3.90962 25.9773C6.06885 25.9773 7.81925 24.1915 7.81925 21.9886C7.81925 19.7858 6.06885 18 3.90962 18C1.7504 18 0 19.7858 0 21.9886C0 24.1915 1.7504 25.9773 3.90962 25.9773Z" fill="url(#paint0_linear_1_11)"/>
</mask>
<g mask="url(#mask0_1_11)">
<path d="M3.90962 25.9773C6.06885 25.9773 7.81925 24.1915 7.81925 21.9886C7.81925 19.7858 6.06885 18 3.90962 18C1.7504 18 0 19.7858 0 21.9886C0 24.1915 1.7504 25.9773 3.90962 25.9773Z" fill="url(#paint1_linear_1_11)"/>
</g>
<mask id="mask1_1_11" style="mask-type:alpha" maskUnits="userSpaceOnUse" x="22" y="18" width="9" height="8">
<path d="M26.5525 25.9773C28.7117 25.9773 30.4621 24.1915 30.4621 21.9886C30.4621 19.7858 28.7117 18 26.5525 18C24.3933 18 22.6429 19.7858 22.6429 21.9886C22.6429 24.1915 24.3933 25.9773 26.5525 25.9773Z" fill="url(#paint2_linear_1_11)"/>
</mask>
<g mask="url(#mask1_1_11)">
<path d="M26.5529 25.9773C28.7121 25.9773 30.4625 24.1915 30.4625 21.9886C30.4625 19.7858 28.7121 18 26.5529 18C24.3937 18 22.6432 19.7858 22.6432 21.9886C22.6432 24.1915 24.3937 25.9773 26.5529 25.9773Z" fill="url(#paint3_linear_1_11)"/>
</g>
<mask id="mask2_1_11" style="mask-type:alpha" maskUnits="userSpaceOnUse" x="45" y="18" width="9" height="8">
<path d="M49.1953 25.9773C51.3546 25.9773 53.105 24.1915 53.105 21.9886C53.105 19.7858 51.3546 18 49.1953 18C47.0361 18 45.2857 19.7858 45.2857 21.9886C45.2857 24.1915 47.0361 25.9773 49.1953 25.9773Z" fill="url(#paint4_linear_1_11)"/>
</mask>
<g mask="url(#mask2_1_11)">
<path d="M49.196 25.9773C51.3552 25.9773 53.1056 24.1915 53.1056 21.9886C53.1056 19.7858 51.3552 18 49.196 18C47.0368 18 45.2864 19.7858 45.2864 21.9886C45.2864 24.1915 47.0368 25.9773 49.196 25.9773Z" fill="url(#paint5_linear_1_11)"/>
</g>
<mask id="mask3_1_11" style="mask-type:alpha" maskUnits="userSpaceOnUse" x="67" y="18" width="9" height="8">
<path d="M71.8382 25.9773C73.9974 25.9773 75.7478 24.1915 75.7478 21.9886C75.7478 19.7858 73.9974 18 71.8382 18C69.6789 18 67.9285 19.7858 67.9285 21.9886C67.9285 24.1915 69.6789 25.9773 71.8382 25.9773Z" fill="url(#paint6_linear_1_11)"/>
</mask>
<g mask="url(#mask3_1_11)">
<path d="M71.8388 25.9773C73.998 25.9773 75.7484 24.1915 75.7484 21.9886C75.7484 19.7858 73.998 18 71.8388 18C69.6795 18 67.9291 19.7858 67.9291 21.9886C67.9291 24.1915 69.6795 25.9773 71.8388 25.9773Z" fill="url(#paint7_linear_1_11)"/>
</g>
<mask id="mask4_1_11" style="mask-type:alpha" maskUnits="userSpaceOnUse" x="0" y="38" width="8" height="9">
<path d="M3.90962 46.0037C6.06885 46.0037 7.81925 44.2179 7.81925 42.015C7.81925 39.8122 6.06885 38.0264 3.90962 38.0264C1.7504 38.0264 0 39.8122 0 42.015C0 44.2179 1.7504 46.0037 3.90962 46.0037Z" fill="url(#paint8_linear_1_11)"/>
</mask>
<g mask="url(#mask4_1_11)">
<path d="M3.90962 46.0037C6.06885 46.0037 7.81925 44.218 7.81925 42.0151C7.81925 39.8122 6.06885 38.0265 3.90962 38.0265C1.7504 38.0265 0 39.8122 0 42.0151C0 44.218 1.7504 46.0037 3.90962 46.0037Z" fill="url(#paint9_linear_1_11)"/>
</g>
<mask id="mask5_1_11" style="mask-type:alpha" maskUnits="userSpaceOnUse" x="22" y="38" width="9" height="9">
<path d="M26.5525 46.0038C28.7117 46.0038 30.4621 44.218 30.4621 42.0151C30.4621 39.8123 28.7117 38.0265 26.5525 38.0265C24.3933 38.0265 22.6429 39.8123 22.6429 42.0151C22.6429 44.218 24.3933 46.0038 26.5525 46.0038Z" fill="url(#paint10_linear_1_11)"/>
</mask>
<g mask="url(#mask5_1_11)">
<path d="M26.5529 46.0037C28.7121 46.0037 30.4625 44.2179 30.4625 42.0151C30.4625 39.8122 28.7121 38.0264 26.5529 38.0264C24.3937 38.0264 22.6432 39.8122 22.6432 42.0151C22.6432 44.2179 24.3937 46.0037 26.5529 46.0037Z" fill="url(#paint11_linear_1_11)"/>
</g>
<mask id="mask6_1_11" style="mask-type:alpha" maskUnits="userSpaceOnUse" x="45" y="38" width="9" height="9">
<path d="M49.1953 46.0038C51.3546 46.0038 53.105 44.218 53.105 42.0151C53.105 39.8123 51.3546 38.0265 49.1953 38.0265C47.0361 38.0265 45.2857 39.8123 45.2857 42.0151C45.2857 44.218 47.0361 46.0038 49.1953 46.0038Z" fill="url(#paint12_linear_1_11)"/>
</mask>
<g mask="url(#mask6_1_11)">
<path d="M49.196 46.0037C51.3552 46.0037 53.1056 44.2179 53.1056 42.0151C53.1056 39.8122 51.3552 38.0264 49.196 38.0264C47.0368 38.0264 45.2864 39.8122 45.2864 42.0151C45.2864 44.2179 47.0368 46.0037 49.196 46.0037Z" fill="url(#paint13_linear_1_11)"/>
</g>
<mask id="mask7_1_11" style="mask-type:alpha" maskUnits="userSpaceOnUse" x="67" y="38" width="9" height="9">
<path d="M71.8382 46.0038C73.9974 46.0038 75.7478 44.218 75.7478 42.0151C75.7478 39.8123 73.9974 38.0265 71.8382 38.0265C69.6789 38.0265 67.9285 39.8123 67.9285 42.0151C67.9285 44.218 69.6789 46.0038 71.8382 46.0038Z" fill="url(#paint14_linear_1_11)"/>
</mask>
<g mask="url(#mask7_1_11)">
<path d="M71.8388 46.0037C73.998 46.0037 75.7484 44.2179 75.7484 42.0151C75.7484 39.8122 73.998 38.0264 71.8388 38.0264C69.6795 38.0264 67.9291 39.8122 67.9291 42.0151C67.9291 44.2179 69.6795 46.0037 71.8388 46.0037Z" fill="url(#paint15_linear_1_11)"/>
</g>
<mask id="mask8_1_11" style="mask-type:alpha" maskUnits="userSpaceOnUse" x="0" y="58" width="8" height="8">
<path d="M3.90962 65.9887C6.06885 65.9887 7.81925 64.2029 7.81925 62C7.81925 59.7971 6.06885 58.0113 3.90962 58.0113C1.7504 58.0113 0 59.7971 0 62C0 64.2029 1.7504 65.9887 3.90962 65.9887Z" fill="url(#paint16_linear_1_11)"/>
</mask>
<g mask="url(#mask8_1_11)">
<path d="M3.90962 65.9888C6.06885 65.9888 7.81925 64.203 7.81925 62.0001C7.81925 59.7972 6.06885 58.0114 3.90962 58.0114C1.7504 58.0114 0 59.7972 0 62.0001C0 64.203 1.7504 65.9888 3.90962 65.9888Z" fill="url(#paint17_linear_1_11)"/>
</g>
<mask id="mask9_1_11" style="mask-type:alpha" maskUnits="userSpaceOnUse" x="22" y="58" width="9" height="8">
<path d="M26.5525 65.9889C28.7117 65.9889 30.4621 64.2032 30.4621 62.0003C30.4621 59.7974 28.7117 58.0116 26.5525 58.0116C24.3933 58.0116 22.6429 59.7974 22.6429 62.0003C22.6429 64.2032 24.3933 65.9889 26.5525 65.9889Z" fill="url(#paint18_linear_1_11)"/>
</mask>
<g mask="url(#mask9_1_11)">
<path d="M26.5529 65.9888C28.7121 65.9888 30.4625 64.203 30.4625 62.0001C30.4625 59.7972 28.7121 58.0114 26.5529 58.0114C24.3937 58.0114 22.6432 59.7972 22.6432 62.0001C22.6432 64.203 24.3937 65.9888 26.5529 65.9888Z" fill="url(#paint19_linear_1_11)"/>
</g>
<mask id="mask10_1_11" style="mask-type:alpha" maskUnits="userSpaceOnUse" x="45" y="58" width="9" height="8">
<path d="M49.1953 65.9889C51.3546 65.9889 53.105 64.2032 53.105 62.0003C53.105 59.7974 51.3546 58.0116 49.1953 58.0116C47.0361 58.0116 45.2857 59.7974 45.2857 62.0003C45.2857 64.2032 47.0361 65.9889 49.1953 65.9889Z" fill="url(#paint20_linear_1_11)"/>
</mask>
<g mask="url(#mask10_1_11)">
<path d="M49.196 65.9888C51.3552 65.9888 53.1056 64.203 53.1056 62.0001C53.1056 59.7972 51.3552 58.0114 49.196 58.0114C47.0368 58.0114 45.2864 59.7972 45.2864 62.0001C45.2864 64.203 47.0368 65.9888 49.196 65.9888Z" fill="url(#paint21_linear_1_11)"/>
</g>
<mask id="mask11_1_11" style="mask-type:alpha" maskUnits="userSpaceOnUse" x="67" y="58" width="9" height="8">
<path d="M71.8382 65.9889C73.9974 65.9889 75.7478 64.2032 75.7478 62.0003C75.7478 59.7974 73.9974 58.0116 71.8382 58.0116C69.6789 58.0116 67.9285 59.7974 67.9285 62.0003C67.9285 64.2032 69.6789 65.9889 71.8382 65.9889Z" fill="url(#paint22_linear_1_11)"/>
</mask>
<g mask="url(#mask11_1_11)">
<path d="M71.8388 65.9888C73.998 65.9888 75.7484 64.203 75.7484 62.0001C75.7484 59.7972 73.998 58.0114 71.8388 58.0114C69.6795 58.0114 67.9291 59.7972 67.9291 62.0001C67.9291 64.203 69.6795 65.9888 71.8388 65.9888Z" fill="url(#paint23_linear_1_11)"/>
</g>
<mask id="mask12_1_11" style="mask-type:alpha" maskUnits="userSpaceOnUse" x="0" y="78" width="8" height="9">
<path d="M3.90962 86.0155C6.06885 86.0155 7.81925 84.2296 7.81925 82.0268C7.81925 79.8239 6.06885 78.0381 3.90962 78.0381C1.7504 78.0381 0 79.8239 0 82.0268C0 84.2296 1.7504 86.0155 3.90962 86.0155Z" fill="url(#paint24_linear_1_11)"/>
</mask>
<g mask="url(#mask12_1_11)">
<path d="M3.90962 86.0152C6.06885 86.0152 7.81925 84.2294 7.81925 82.0265C7.81925 79.8236 6.06885 78.0379 3.90962 78.0379C1.7504 78.0379 0 79.8236 0 82.0265C0 84.2294 1.7504 86.0152 3.90962 86.0152Z" fill="url(#paint25_linear_1_11)"/>
</g>
<mask id="mask13_1_11" style="mask-type:alpha" maskUnits="userSpaceOnUse" x="22" y="78" width="9" height="9">
<path d="M26.5525 86.0155C28.7117 86.0155 30.4621 84.2296 30.4621 82.0268C30.4621 79.8239 28.7117 78.0381 26.5525 78.0381C24.3933 78.0381 22.6429 79.8239 22.6429 82.0268C22.6429 84.2296 24.3933 86.0155 26.5525 86.0155Z" fill="url(#paint26_linear_1_11)"/>
</mask>
<g mask="url(#mask13_1_11)">
<path d="M26.5529 86.0152C28.7121 86.0152 30.4625 84.2294 30.4625 82.0265C30.4625 79.8236 28.7121 78.0379 26.5529 78.0379C24.3937 78.0379 22.6432 79.8236 22.6432 82.0265C22.6432 84.2294 24.3937 86.0152 26.5529 86.0152Z" fill="url(#paint27_linear_1_11)"/>
</g>
<mask id="mask14_1_11" style="mask-type:alpha" maskUnits="userSpaceOnUse" x="45" y="78" width="9" height="9">
<path d="M49.1953 86.0155C51.3546 86.0155 53.105 84.2296 53.105 82.0268C53.105 79.8239 51.3546 78.0381 49.1953 78.0381C47.0361 78.0381 45.2857 79.8239 45.2857 82.0268C45.2857 84.2296 47.0361 86.0155 49.1953 86.0155Z" fill="url(#paint28_linear_1_11)"/>
</mask>
<g mask="url(#mask14_1_11)">
<path d="M49.196 86.0152C51.3552 86.0152 53.1056 84.2294 53.1056 82.0265C53.1056 79.8236 51.3552 78.0379 49.196 78.0379C47.0368 78.0379 45.2864 79.8236 45.2864 82.0265C45.2864 84.2294 47.0368 86.0152 49.196 86.0152Z" fill="url(#paint29_linear_1_11)"/>
</g>
<mask id="mask15_1_11" style="mask-type:alpha" maskUnits="userSpaceOnUse" x="67" y="78" width="9" height="9">
<path d="M71.8382 86.0155C73.9974 86.0155 75.7478 84.2296 75.7478 82.0268C75.7478 79.8239 73.9974 78.0381 71.8382 78.0381C69.6789 78.0381 67.9285 79.8239 67.9285 82.0268C67.9285 84.2296 69.6789 86.0155 71.8382 86.0155Z" fill="url(#paint30_linear_1_11)"/>
</mask>
<g mask="url(#mask15_1_11)">
<path d="M71.8388 86.0152C73.998 86.0152 75.7484 84.2294 75.7484 82.0265C75.7484 79.8236 73.998 78.0379 71.8388 78.0379C69.6795 78.0379 67.9291 79.8236 67.9291 82.0265C67.9291 84.2294 69.6795 86.0152 71.8388 86.0152Z" fill="url(#paint31_linear_1_11)"/>
</g>
</g>
<defs>
<linearGradient id="paint0_linear_1_11" x1="38.076" y1="110.471" x2="-17.486" y2="-27.7764" gradientUnits="userSpaceOnUse">
<stop stop-color="#FFA434"/>
<stop offset="1" stop-color="#FFA434"/>
</linearGradient>
<linearGradient id="paint1_linear_1_11" x1="38.076" y1="110.471" x2="-17.486" y2="-27.7764" gradientUnits="userSpaceOnUse">
<stop stop-color="#FFA434"/>
<stop offset="1" stop-color="#FFA434"/>
</linearGradient>
<linearGradient id="paint2_linear_1_11" x1="60.7189" y1="110.471" x2="5.15693" y2="-27.7764" gradientUnits="userSpaceOnUse">
<stop stop-color="#FFA434"/>
<stop offset="1" stop-color="#FFA434"/>
</linearGradient>
<linearGradient id="paint3_linear_1_11" x1="60.7193" y1="110.471" x2="5.1573" y2="-27.7764" gradientUnits="userSpaceOnUse">
<stop stop-color="#FFA434"/>
<stop offset="1" stop-color="#FFA434"/>
</linearGradient>
<linearGradient id="paint4_linear_1_11" x1="83.3617" y1="110.471" x2="27.7998" y2="-27.7764" gradientUnits="userSpaceOnUse">
<stop stop-color="#FFA434"/>
<stop offset="1" stop-color="#FFA434"/>
</linearGradient>
<linearGradient id="paint5_linear_1_11" x1="83.3624" y1="110.471" x2="27.8004" y2="-27.7764" gradientUnits="userSpaceOnUse">
<stop stop-color="#FFA434"/>
<stop offset="1" stop-color="#FFA434"/>
</linearGradient>
<linearGradient id="paint6_linear_1_11" x1="106.005" y1="110.471" x2="50.4426" y2="-27.7764" gradientUnits="userSpaceOnUse">
<stop stop-color="#FFA434"/>
<stop offset="1" stop-color="#FFA434"/>
</linearGradient>
<linearGradient id="paint7_linear_1_11" x1="106.005" y1="110.471" x2="50.4432" y2="-27.7764" gradientUnits="userSpaceOnUse">
<stop stop-color="#FFA434"/>
<stop offset="1" stop-color="#FFA434"/>
</linearGradient>
<linearGradient id="paint8_linear_1_11" x1="38.076" y1="130.496" x2="-17.4851" y2="-7.74992" gradientUnits="userSpaceOnUse">
<stop stop-color="#FFA434"/>
<stop offset="1" stop-color="#FFA434"/>
</linearGradient>
<linearGradient id="paint9_linear_1_11" x1="38.076" y1="130.496" x2="-17.4851" y2="-7.74986" gradientUnits="userSpaceOnUse">
<stop stop-color="#FFA434"/>
<stop offset="1" stop-color="#FFA434"/>
</linearGradient>
<linearGradient id="paint10_linear_1_11" x1="60.7189" y1="130.496" x2="5.15788" y2="-7.74987" gradientUnits="userSpaceOnUse">
<stop stop-color="#FFA434"/>
<stop offset="1" stop-color="#FFA434"/>
</linearGradient>
<linearGradient id="paint11_linear_1_11" x1="60.7193" y1="130.496" x2="5.15824" y2="-7.74994" gradientUnits="userSpaceOnUse">
<stop stop-color="#FFA434"/>
<stop offset="1" stop-color="#FFA434"/>
</linearGradient>
<linearGradient id="paint12_linear_1_11" x1="83.3617" y1="130.496" x2="27.8007" y2="-7.74987" gradientUnits="userSpaceOnUse">
<stop stop-color="#FFA434"/>
<stop offset="1" stop-color="#FFA434"/>
</linearGradient>
<linearGradient id="paint13_linear_1_11" x1="83.3624" y1="130.496" x2="27.8014" y2="-7.74994" gradientUnits="userSpaceOnUse">
<stop stop-color="#FFA434"/>
<stop offset="1" stop-color="#FFA434"/>
</linearGradient>
<linearGradient id="paint14_linear_1_11" x1="106.005" y1="130.496" x2="50.4435" y2="-7.74987" gradientUnits="userSpaceOnUse">
<stop stop-color="#FFA434"/>
<stop offset="1" stop-color="#FFA434"/>
</linearGradient>
<linearGradient id="paint15_linear_1_11" x1="106.005" y1="130.496" x2="50.4441" y2="-7.74994" gradientUnits="userSpaceOnUse">
<stop stop-color="#FFA434"/>
<stop offset="1" stop-color="#FFA434"/>
</linearGradient>
<linearGradient id="paint16_linear_1_11" x1="38.076" y1="150.482" x2="-17.486" y2="12.2349" gradientUnits="userSpaceOnUse">
<stop stop-color="#FFA434"/>
<stop offset="1" stop-color="#FFA434"/>
</linearGradient>
<linearGradient id="paint17_linear_1_11" x1="38.076" y1="150.482" x2="-17.486" y2="12.235" gradientUnits="userSpaceOnUse">
<stop stop-color="#FFA434"/>
<stop offset="1" stop-color="#FFA434"/>
</linearGradient>
<linearGradient id="paint18_linear_1_11" x1="60.7189" y1="150.482" x2="5.15693" y2="12.2352" gradientUnits="userSpaceOnUse">
<stop stop-color="#FFA434"/>
<stop offset="1" stop-color="#FFA434"/>
</linearGradient>
<linearGradient id="paint19_linear_1_11" x1="60.7193" y1="150.482" x2="5.1573" y2="12.235" gradientUnits="userSpaceOnUse">
<stop stop-color="#FFA434"/>
<stop offset="1" stop-color="#FFA434"/>
</linearGradient>
<linearGradient id="paint20_linear_1_11" x1="83.3617" y1="150.482" x2="27.7998" y2="12.2352" gradientUnits="userSpaceOnUse">
<stop stop-color="#FFA434"/>
<stop offset="1" stop-color="#FFA434"/>
</linearGradient>
<linearGradient id="paint21_linear_1_11" x1="83.3624" y1="150.482" x2="27.8004" y2="12.235" gradientUnits="userSpaceOnUse">
<stop stop-color="#FFA434"/>
<stop offset="1" stop-color="#FFA434"/>
</linearGradient>
<linearGradient id="paint22_linear_1_11" x1="106.005" y1="150.482" x2="50.4426" y2="12.2352" gradientUnits="userSpaceOnUse">
<stop stop-color="#FFA434"/>
<stop offset="1" stop-color="#FFA434"/>
</linearGradient>
<linearGradient id="paint23_linear_1_11" x1="106.005" y1="150.482" x2="50.4432" y2="12.235" gradientUnits="userSpaceOnUse">
<stop stop-color="#FFA434"/>
<stop offset="1" stop-color="#FFA434"/>
</linearGradient>
<linearGradient id="paint24_linear_1_11" x1="38.076" y1="170.509" x2="-17.486" y2="32.2617" gradientUnits="userSpaceOnUse">
<stop stop-color="#FFA434"/>
<stop offset="1" stop-color="#FFA434"/>
</linearGradient>
<linearGradient id="paint25_linear_1_11" x1="38.076" y1="170.509" x2="-17.486" y2="32.2615" gradientUnits="userSpaceOnUse">
<stop stop-color="#FFA434"/>
<stop offset="1" stop-color="#FFA434"/>
</linearGradient>
<linearGradient id="paint26_linear_1_11" x1="60.7189" y1="170.509" x2="5.15693" y2="32.2617" gradientUnits="userSpaceOnUse">
<stop stop-color="#FFA434"/>
<stop offset="1" stop-color="#FFA434"/>
</linearGradient>
<linearGradient id="paint27_linear_1_11" x1="60.7193" y1="170.509" x2="5.1573" y2="32.2614" gradientUnits="userSpaceOnUse">
<stop stop-color="#FFA434"/>
<stop offset="1" stop-color="#FFA434"/>
</linearGradient>
<linearGradient id="paint28_linear_1_11" x1="83.3617" y1="170.509" x2="27.7998" y2="32.2617" gradientUnits="userSpaceOnUse">
<stop stop-color="#FFA434"/>
<stop offset="1" stop-color="#FFA434"/>
</linearGradient>
<linearGradient id="paint29_linear_1_11" x1="83.3624" y1="170.509" x2="27.8004" y2="32.2614" gradientUnits="userSpaceOnUse">
<stop stop-color="#FFA434"/>
<stop offset="1" stop-color="#FFA434"/>
</linearGradient>
<linearGradient id="paint30_linear_1_11" x1="106.005" y1="170.509" x2="50.4426" y2="32.2617" gradientUnits="userSpaceOnUse">
<stop stop-color="#FFA434"/>
<stop offset="1" stop-color="#FFA434"/>
</linearGradient>
<linearGradient id="paint31_linear_1_11" x1="106.005" y1="170.509" x2="50.4432" y2="32.2614" gradientUnits="userSpaceOnUse">
<stop stop-color="#FFA434"/>
<stop offset="1" stop-color="#FFA434"/>
</linearGradient>
</defs>
</svg>
